<svg width="49" height="49" viewBox="0 0 49 49" fill="none" xmlns="http://www.w3.org/2000/svg">
<rect width="49" height="49" rx="10" fill="#EDFAE3"/>
<path d="M24.4697 12C17.6295 12 12 17.6432 12 24.5C12 31.3568 17.6295 37 24.4697 37C31.3099 37 37 31.4175 37 24.5C37 17.5825 31.3705 12 24.4697 12ZM34.6392 23.4078H30.0993C29.8571 20.2524 28.8281 17.2791 27.0726 14.6699C31.1283 15.7015 34.155 19.1602 34.6392 23.4078ZM21.1404 25.6529H27.799C27.4964 28.7476 26.3462 31.6602 24.4697 34.1481C22.5932 31.6602 21.4431 28.7476 21.1404 25.6529ZM21.1404 23.4078C21.4431 20.3131 22.5932 17.4005 24.4697 14.9126C26.3462 17.4005 27.5569 20.3131 27.799 23.4078H21.1404ZM21.9274 14.6092C20.1719 17.2184 19.1429 20.1917 18.9007 23.3471H14.3608C14.7845 19.1602 17.8717 15.7015 21.9274 14.6092ZM14.3608 25.6529H18.9007C19.1429 28.8083 20.1719 31.7816 21.9274 34.3908C17.8717 33.3592 14.7845 29.9005 14.3608 25.6529ZM27.0726 34.4515C28.8281 31.8422 29.8571 28.8689 30.0993 25.7136H34.6392C34.155 29.9005 31.1283 33.3592 27.0726 34.4515Z" fill="#65CE54"/>
</svg>
